<svg xmlns="http://www.w3.org/2000/svg" width="720" height="352"><rect width="100%" height="100%" fill="#ffffff"/><text x="24" y="30" font-size="22" font-family="sans-serif" fill="#1f2937">Top Diagnostic Tags</text><text x="24" y="52" font-size="12" font-family="sans-serif" fill="#6b7280">Most frequent explainability tags</text><text x="24" y="88" font-size="12" font-family="sans-serif" fill="#111827">clean_mapping</text><rect x="170" y="75" width="510" height="16" rx="3" fill="#a85f2f"/><text x="688" y="88" font-size="12" font-family="sans-serif" fill="#111827">7</text><text x="24" y="116" font-size="12" font-family="sans-serif" fill="#111827">used_sequence_fallback</text><rect x="170" y="103" width="145" height="16" rx="3" fill="#a85f2f"/><text x="323" y="116" font-size="12" font-family="sans-serif" fill="#111827">2</text><text x="24" y="144" font-size="12" font-family="sans-serif" fill="#111827">likely_numbering_offset</text><rect x="170" y="131" width="145" height="16" rx="3" fill="#a85f2f"/><text x="323" y="144" font-size="12" font-family="sans-serif" fill="#111827">2</text><text x="24" y="172" font-size="12" font-family="sans-serif" fill="#111827">parse_warning_present</text><rect x="170" y="159" width="145" height="16" rx="3" fill="#a85f2f"/><text x="323" y="172" font-size="12" font-family="sans-serif" fill="#111827">2</text><text x="24" y="200" font-size="12" font-family="sans-serif" fill="#111827">sparse_atom_coverage</text><rect x="170" y="187" width="72" height="16" rx="3" fill="#a85f2f"/><text x="250" y="200" font-size="12" font-family="sans-serif" fill="#111827">1</text><text x="24" y="228" font-size="12" font-family="sans-serif" fill="#111827">used_ca_fallback_irmsd</text><rect x="170" y="215" width="72" height="16" rx="3" fill="#a85f2f"/><text x="250" y="228" font-size="12" font-family="sans-serif" fill="#111827">1</text><text x="24" y="256" font-size="12" font-family="sans-serif" fill="#111827">used_ca_fallback_lrmsd</text><rect x="170" y="243" width="72" height="16" rx="3" fill="#a85f2f"/><text x="250" y="256" font-size="12" font-family="sans-serif" fill="#111827">1</text><text x="24" y="284" font-size="12" font-family="sans-serif" fill="#111827">low_sequence_identity</text><rect x="170" y="271" width="72" height="16" rx="3" fill="#a85f2f"/><text x="250" y="284" font-size="12" font-family="sans-serif" fill="#111827">1</text><text x="24" y="312" font-size="12" font-family="sans-serif" fill="#111827">partial_interface_observed</text><rect x="170" y="299" width="72" height="16" rx="3" fill="#a85f2f"/><text x="250" y="312" font-size="12" font-family="sans-serif" fill="#111827">1</text></svg>