<svg xmlns="http://www.w3.org/2000/svg" width="720" height="268"><rect width="100%" height="100%" fill="#ffffff"/><text x="24" y="30" font-size="22" font-family="sans-serif" fill="#1f2937">Prediction Performance Snapshot</text><text x="24" y="52" font-size="12" font-family="sans-serif" fill="#6b7280">Overall benchmark summary</text><text x="24" y="88" font-size="12" font-family="sans-serif" fill="#111827">per_sample mean DockQ</text><rect x="170" y="75" width="455" height="16" rx="3" fill="#6b46c1"/><text x="633" y="88" font-size="12" font-family="sans-serif" fill="#111827">0.893</text><text x="24" y="116" font-size="12" font-family="sans-serif" fill="#111827">top1 mean DockQ</text><rect x="170" y="103" width="455" height="16" rx="3" fill="#6b46c1"/><text x="633" y="116" font-size="12" font-family="sans-serif" fill="#111827">0.893</text><text x="24" y="144" font-size="12" font-family="sans-serif" fill="#111827">best_of_k mean DockQ</text><rect x="170" y="131" width="455" height="16" rx="3" fill="#6b46c1"/><text x="633" y="144" font-size="12" font-family="sans-serif" fill="#111827">0.893</text><text x="24" y="172" font-size="12" font-family="sans-serif" fill="#111827">best_of_k DockQ&gt;=0.23</text><rect x="170" y="159" width="510" height="16" rx="3" fill="#6b46c1"/><text x="688" y="172" font-size="12" font-family="sans-serif" fill="#111827">1.000</text><text x="24" y="200" font-size="12" font-family="sans-serif" fill="#111827">best_of_k mean Fnat</text><rect x="170" y="187" width="409" height="16" rx="3" fill="#6b46c1"/><text x="587" y="200" font-size="12" font-family="sans-serif" fill="#111827">0.802</text><text x="24" y="228" font-size="12" font-family="sans-serif" fill="#111827">best_of_k mean interface F1</text><rect x="170" y="215" width="498" height="16" rx="3" fill="#6b46c1"/><text x="676" y="228" font-size="12" font-family="sans-serif" fill="#111827">0.977</text></svg>